<svg width="40" height="42" viewBox="0 0 40 42" fill="none" xmlns="http://www.w3.org/2000/svg">
<circle cx="20" cy="22" r="19.5" fill="white" stroke="#8B7969"/>
<path d="M13.8 17.67C14.12 17.19 14.55 16.76 15.09 16.38C16.31 17.22 17.38 18.12 18.3 19.08C18.84 19.66 19.38 20.22 19.92 20.76L24.57 16.29C25.05 16.63 25.49 17.06 25.89 17.58C25.15 18.64 24.38 19.57 23.58 20.37L21.51 22.38L25.98 27.06C25.66 27.52 25.23 27.95 24.69 28.35C23.61 27.61 22.68 26.85 21.9 26.07C21.62 25.83 20.94 25.13 19.86 23.97L15.18 28.44C14.74 28.14 14.32 27.71 13.92 27.15C14.66 26.09 15.4 25.18 16.14 24.42C16.9 23.66 17.61 22.97 18.27 22.35L13.8 17.67Z" fill="#8B7969"/>
</svg>
